<svg id="Layer_1" data-name="Layer 1" xmlns="http://www.w3.org/2000/svg" viewBox="0 0 512 512"><defs><style>.cls-1{fill:#d9e4e8;}.cls-2{opacity:0.14;}.cls-3{fill:#17292d;}.cls-4{fill:#fff;}.cls-5{fill:#79d3d3;}.cls-6{fill:#141f38;}</style></defs><title>speech-bubble-3-filled</title><path class="cls-1" d="M345.75,474c-84.6,0-153.43-60.06-153.43-133.87s68.83-133.87,153.43-133.87,153.42,60,153.42,133.87a121.08,121.08,0,0,1-21.94,69l-4.46,6.46,24.89,46.14c1.83,3.09,1.92,5.63.54,8.06a8.19,8.19,0,0,1-6.79,4.24h0a7.87,7.87,0,0,1-4-1.23L439,446.6l-6.26,3.77C407,465.81,377,474,345.75,474Z"/><g class="cls-2"><path class="cls-3" d="M466.74,239.55c-30.32-28.39-73.29-46.14-121-46.14-91.82,0-166.25,65.67-166.25,146.69,0,36.39,15,69.66,39.91,95.29,1.66,0,3.3.11,5,.11C350.4,435.5,454.37,349.44,466.74,239.55Z"/></g><path class="cls-4" d="M218,397c-41.68,0-81.8-10.89-116-31.51l-6.26-3.77-60.84,32.8A15,15,0,0,1,27,397a14.62,14.62,0,0,1-12.36-7.58c-1.77-3.11-3.12-8.05.39-13.9l31.75-58.86-4.46-6.46C23,282.34,12.82,250.28,12.82,217.54c0-99,92-179.5,205.14-179.5s205.14,80.52,205.14,179.5S331.08,397,218,397Z"/><path class="cls-5" d="M307.71,243.18a25.64,25.64,0,1,1,25.64-25.64A25.67,25.67,0,0,1,307.71,243.18Z"/><path class="cls-5" d="M218,243.18a25.64,25.64,0,1,1,25.64-25.64A25.67,25.67,0,0,1,218,243.18Z"/><path class="cls-5" d="M128.21,243.18a25.64,25.64,0,1,1,25.64-25.64A25.67,25.67,0,0,1,128.21,243.18Z"/><path class="cls-6" d="M307.71,256a38.46,38.46,0,1,0-38.46-38.46A38.46,38.46,0,0,0,307.71,256Zm0-51.29a12.82,12.82,0,1,1-12.82,12.82A12.84,12.84,0,0,1,307.71,204.71Zm-51.29,12.82A38.46,38.46,0,1,0,218,256,38.46,38.46,0,0,0,256.43,217.54Zm-51.29,0A12.82,12.82,0,1,1,218,230.36,12.84,12.84,0,0,1,205.14,217.54Zm-76.93-38.46a38.46,38.46,0,1,0,38.46,38.46A38.46,38.46,0,0,0,128.21,179.07Zm0,51.29A12.82,12.82,0,1,1,141,217.54,12.84,12.84,0,0,1,128.21,230.36Zm359.58,186C503.15,394.13,512,368,512,340.09c0-51.68-30.31-97.1-76.08-123.23C435.51,111,338.09,25.22,218,25.22,97.59,25.22,0,111.32,0,217.54c0,36.62,11.61,70.85,31.74,100L4,368.95c-11.63,19.38,3.92,40.91,23,40.91a26.89,26.89,0,0,0,13.93-4l54.4-29.34a235.74,235.74,0,0,0,103.75,32.62c28,46.2,83.16,77.65,146.69,77.65,34.7,0,66.9-9.39,93.55-25.43l41.49,22.38a20.52,20.52,0,0,0,10.62,3.05c14.54,0,26.39-16.42,17.52-31.2ZM96,347l-12.87,6.94-54.4,29.34-.52.28-.5.3a4.73,4.73,0,0,1-.71.35,2.53,2.53,0,0,1-1.36-1.3,2.69,2.69,0,0,1,.35-.77l.3-.5.28-.52,27.74-51.43,7.46-13.83-8.93-12.92C35,277.2,25.64,247.66,25.64,217.54c0-91.91,86.27-166.68,192.32-166.68s192.32,74.77,192.32,166.68S324,384.21,218,384.21c-39.34,0-77.18-10.26-109.43-29.67Zm370.69,54.77-8.93,12.92,7.46,13.83,13.44,24.92-27.18-14.66-12.87-6.94-12.53,7.54c-23.65,14.23-51.43,21.76-80.33,21.76-47.54,0-89.63-20.43-115.09-51.62,103.79-5.26,188.11-74.59,202.94-163.86,32.14,22.2,52.76,56.28,52.76,94.43A108.27,108.27,0,0,1,466.69,401.78Z"/></svg>